<mxfile host="Electron" modified="2023-07-30T21:24:52.705Z" agent="Mozilla/5.0 (X11; Linux x86_64) AppleWebKit/537.36 (KHTML, like Gecko) draw.io/21.6.5 Chrome/114.0.5735.243 Electron/25.3.1 Safari/537.36" etag="zctwQyi0WrsJdfZQHACJ" version="21.6.5" type="device">
  <diagram name="Page-1" id="6vGRgz2Inx0NJ3C_ajK6">
    <mxGraphModel dx="2074" dy="875" grid="1" gridSize="10" guides="1" tooltips="1" connect="1" arrows="1" fold="1" page="1" pageScale="1" pageWidth="1169" pageHeight="827" math="0" shadow="0">
      <root>
        <mxCell id="0" />
        <mxCell id="1" parent="0" />
        <mxCell id="9dzcugBzTrAj-IFBH-OF-1" value="" style="rounded=0;whiteSpace=wrap;html=1;fillColor=#647687;fontColor=#ffffff;strokeColor=#314354;" vertex="1" parent="1">
          <mxGeometry x="640" y="160" width="280" height="200" as="geometry" />
        </mxCell>
        <mxCell id="9dzcugBzTrAj-IFBH-OF-2" value="" style="rounded=0;whiteSpace=wrap;html=1;fillColor=#647687;fontColor=#ffffff;strokeColor=#314354;" vertex="1" parent="1">
          <mxGeometry x="1360" y="160" width="280" height="200" as="geometry" />
        </mxCell>
        <mxCell id="9dzcugBzTrAj-IFBH-OF-3" value="&amp;lt;iframe&amp;gt;" style="rounded=1;whiteSpace=wrap;html=1;fillColor=#6d8764;fontColor=#ffffff;strokeColor=#3A5431;fontSize=20;fontStyle=0;fontFamily=Noto Mono;fontSource=https%3A%2F%2Ffonts.googleapis.com%2Fcss%3Ffamily%3DNoto%2BMono;" vertex="1" parent="1">
          <mxGeometry x="680" y="280" width="200" height="40" as="geometry" />
        </mxCell>
        <mxCell id="9dzcugBzTrAj-IFBH-OF-4" value="/chat" style="rounded=1;whiteSpace=wrap;html=1;fillColor=#76608a;fontColor=#ffffff;strokeColor=#432D57;fontSize=20;fontStyle=0;fontFamily=Noto Mono;fontSource=https%3A%2F%2Ffonts.googleapis.com%2Fcss%3Ffamily%3DNoto%2BMono;" vertex="1" parent="1">
          <mxGeometry x="1400" y="280" width="200" height="40" as="geometry" />
        </mxCell>
        <mxCell id="9dzcugBzTrAj-IFBH-OF-7" style="edgeStyle=orthogonalEdgeStyle;rounded=0;orthogonalLoop=1;jettySize=auto;html=1;endArrow=none;endFill=0;" edge="1" parent="1" source="9dzcugBzTrAj-IFBH-OF-6">
          <mxGeometry relative="1" as="geometry">
            <mxPoint x="1140" y="300" as="targetPoint" />
          </mxGeometry>
        </mxCell>
        <mxCell id="9dzcugBzTrAj-IFBH-OF-6" value="Transcoding : Chunked" style="rounded=0;whiteSpace=wrap;html=1;fillColor=#f0a30a;fontColor=#FFFFFF;strokeColor=#BD7000;fontSize=20;" vertex="1" parent="1">
          <mxGeometry x="1000" y="200" width="280" height="40" as="geometry" />
        </mxCell>
        <mxCell id="9dzcugBzTrAj-IFBH-OF-5" style="edgeStyle=orthogonalEdgeStyle;rounded=0;orthogonalLoop=1;jettySize=auto;html=1;entryX=0;entryY=0.5;entryDx=0;entryDy=0;strokeWidth=2;" edge="1" parent="1" source="9dzcugBzTrAj-IFBH-OF-3" target="9dzcugBzTrAj-IFBH-OF-4">
          <mxGeometry relative="1" as="geometry" />
        </mxCell>
        <mxCell id="9dzcugBzTrAj-IFBH-OF-8" value="Website" style="text;html=1;strokeColor=none;fillColor=none;align=center;verticalAlign=middle;whiteSpace=wrap;rounded=0;fontSize=24;fontStyle=1" vertex="1" parent="1">
          <mxGeometry x="640" y="160" width="280" height="80" as="geometry" />
        </mxCell>
        <mxCell id="9dzcugBzTrAj-IFBH-OF-9" value="Server" style="text;html=1;strokeColor=none;fillColor=none;align=center;verticalAlign=middle;whiteSpace=wrap;rounded=0;fontSize=24;fontStyle=1" vertex="1" parent="1">
          <mxGeometry x="1360" y="160" width="280" height="80" as="geometry" />
        </mxCell>
        <mxCell id="9dzcugBzTrAj-IFBH-OF-18" style="edgeStyle=orthogonalEdgeStyle;rounded=0;orthogonalLoop=1;jettySize=auto;html=1;entryX=0;entryY=0.5;entryDx=0;entryDy=0;dashed=1;" edge="1" parent="1" source="9dzcugBzTrAj-IFBH-OF-13" target="9dzcugBzTrAj-IFBH-OF-17">
          <mxGeometry relative="1" as="geometry" />
        </mxCell>
        <mxCell id="9dzcugBzTrAj-IFBH-OF-19" value="Wait Time and / or &lt;br style=&quot;font-size: 16px;&quot;&gt;Appended Content" style="edgeLabel;html=1;align=center;verticalAlign=middle;resizable=0;points=[];fontSize=16;" vertex="1" connectable="0" parent="9dzcugBzTrAj-IFBH-OF-18">
          <mxGeometry x="-0.05" y="2" relative="1" as="geometry">
            <mxPoint as="offset" />
          </mxGeometry>
        </mxCell>
        <mxCell id="9dzcugBzTrAj-IFBH-OF-13" value="Rendered&lt;br&gt;Messages" style="rounded=0;whiteSpace=wrap;html=1;fillColor=#647687;fontColor=#ffffff;strokeColor=#314354;fontSize=20;" vertex="1" parent="1">
          <mxGeometry x="840" y="520" width="160" height="80" as="geometry" />
        </mxCell>
        <mxCell id="9dzcugBzTrAj-IFBH-OF-24" style="edgeStyle=orthogonalEdgeStyle;rounded=0;orthogonalLoop=1;jettySize=auto;html=1;entryX=0;entryY=0.5;entryDx=0;entryDy=0;" edge="1" parent="1" source="9dzcugBzTrAj-IFBH-OF-17" target="9dzcugBzTrAj-IFBH-OF-22">
          <mxGeometry relative="1" as="geometry" />
        </mxCell>
        <mxCell id="9dzcugBzTrAj-IFBH-OF-17" value="Meta&lt;br&gt;Redirect" style="rounded=0;whiteSpace=wrap;html=1;fillColor=#647687;fontColor=#ffffff;strokeColor=#314354;fontSize=20;" vertex="1" parent="1">
          <mxGeometry x="1280" y="520" width="160" height="80" as="geometry" />
        </mxCell>
        <mxCell id="9dzcugBzTrAj-IFBH-OF-23" style="edgeStyle=orthogonalEdgeStyle;rounded=0;orthogonalLoop=1;jettySize=auto;html=1;entryX=0;entryY=0.5;entryDx=0;entryDy=0;" edge="1" parent="1" source="9dzcugBzTrAj-IFBH-OF-21" target="9dzcugBzTrAj-IFBH-OF-13">
          <mxGeometry relative="1" as="geometry" />
        </mxCell>
        <mxCell id="9dzcugBzTrAj-IFBH-OF-21" value="Open" style="rounded=1;whiteSpace=wrap;html=1;fillColor=#6d8764;fontColor=#ffffff;strokeColor=#3A5431;fontSize=20;fontStyle=0;fontFamily=Noto Mono;fontSource=https%3A%2F%2Ffonts.googleapis.com%2Fcss%3Ffamily%3DNoto%2BMono;" vertex="1" parent="1">
          <mxGeometry x="640" y="540" width="120" height="40" as="geometry" />
        </mxCell>
        <mxCell id="9dzcugBzTrAj-IFBH-OF-22" value="Close" style="rounded=1;whiteSpace=wrap;html=1;fillColor=#6d8764;fontColor=#ffffff;strokeColor=#3A5431;fontSize=20;fontStyle=0;fontFamily=Noto Mono;fontSource=https%3A%2F%2Ffonts.googleapis.com%2Fcss%3Ffamily%3DNoto%2BMono;" vertex="1" parent="1">
          <mxGeometry x="1520" y="540" width="120" height="40" as="geometry" />
        </mxCell>
      </root>
    </mxGraphModel>
  </diagram>
</mxfile>
